<mxfile host="app.diagrams.net" modified="2023-12-14T01:59:43.294Z" agent="Mozilla/5.0 (Macintosh; Intel Mac OS X 10_15_7) AppleWebKit/605.1.15 (KHTML, like Gecko) Version/16.6 Safari/605.1.15" etag="Pxv_384mj-KojryGgb71" version="22.1.8" type="device">
  <diagram name="Page-1" id="-RxryTaw2pR8h29_i7Bc">
    <mxGraphModel dx="2618" dy="1132" grid="1" gridSize="10" guides="1" tooltips="1" connect="1" arrows="1" fold="1" page="1" pageScale="1" pageWidth="850" pageHeight="1100" math="0" shadow="0">
      <root>
        <mxCell id="0" />
        <mxCell id="1" parent="0" />
        <mxCell id="kcXfaE-dkaj5RGywXrMK-2" value="" style="shape=cube;whiteSpace=wrap;html=1;boundedLbl=1;backgroundOutline=1;darkOpacity=0.05;darkOpacity2=0.1;size=30;" parent="1" vertex="1">
          <mxGeometry x="40" y="100" width="230" height="260" as="geometry" />
        </mxCell>
        <mxCell id="kcXfaE-dkaj5RGywXrMK-3" value="" style="shape=cube;whiteSpace=wrap;html=1;boundedLbl=1;backgroundOutline=1;darkOpacity=0.05;darkOpacity2=0.1;size=40;" parent="1" vertex="1">
          <mxGeometry x="460" y="70" width="340" height="270" as="geometry" />
        </mxCell>
        <mxCell id="kcXfaE-dkaj5RGywXrMK-5" value="" style="shape=cube;whiteSpace=wrap;html=1;boundedLbl=1;backgroundOutline=1;darkOpacity=0.05;darkOpacity2=0.1;" parent="1" vertex="1">
          <mxGeometry x="80" y="500" width="240" height="270" as="geometry" />
        </mxCell>
        <mxCell id="kcXfaE-dkaj5RGywXrMK-7" value="&amp;lt;&amp;lt; Client &amp;gt;&amp;gt;" style="text;html=1;strokeColor=none;fillColor=none;align=center;verticalAlign=middle;whiteSpace=wrap;rounded=0;" parent="1" vertex="1">
          <mxGeometry x="125" y="140" width="75" height="30" as="geometry" />
        </mxCell>
        <mxCell id="kcXfaE-dkaj5RGywXrMK-8" value="Mobile Device" style="text;html=1;strokeColor=none;fillColor=none;align=center;verticalAlign=middle;whiteSpace=wrap;rounded=0;" parent="1" vertex="1">
          <mxGeometry x="132.5" y="190" width="60" height="30" as="geometry" />
        </mxCell>
        <mxCell id="kcXfaE-dkaj5RGywXrMK-9" value="Text" style="text;html=1;strokeColor=none;fillColor=none;align=center;verticalAlign=middle;whiteSpace=wrap;rounded=0;" parent="1" vertex="1">
          <mxGeometry x="132.5" y="255" width="60" height="30" as="geometry" />
        </mxCell>
        <mxCell id="kcXfaE-dkaj5RGywXrMK-10" value="App.js" style="rounded=1;whiteSpace=wrap;html=1;" parent="1" vertex="1">
          <mxGeometry x="102.5" y="240" width="120" height="60" as="geometry" />
        </mxCell>
        <mxCell id="kcXfaE-dkaj5RGywXrMK-11" value="&amp;lt;&amp;lt;Server&amp;gt;&amp;gt;" style="text;html=1;strokeColor=none;fillColor=none;align=center;verticalAlign=middle;whiteSpace=wrap;rounded=0;" parent="1" vertex="1">
          <mxGeometry x="610" y="130" width="60" height="30" as="geometry" />
        </mxCell>
        <mxCell id="kcXfaE-dkaj5RGywXrMK-14" value="&amp;lt;&amp;lt;Server&amp;gt;&amp;gt;" style="text;html=1;strokeColor=none;fillColor=none;align=center;verticalAlign=middle;whiteSpace=wrap;rounded=0;" parent="1" vertex="1">
          <mxGeometry x="170" y="535" width="60" height="30" as="geometry" />
        </mxCell>
        <mxCell id="kcXfaE-dkaj5RGywXrMK-15" value="Elephant &amp;nbsp;SQL" style="text;html=1;strokeColor=none;fillColor=none;align=center;verticalAlign=middle;whiteSpace=wrap;rounded=0;" parent="1" vertex="1">
          <mxGeometry x="150" y="565" width="110" height="30" as="geometry" />
        </mxCell>
        <mxCell id="kcXfaE-dkaj5RGywXrMK-16" value="" style="shape=cube;whiteSpace=wrap;html=1;boundedLbl=1;backgroundOutline=1;darkOpacity=0.05;darkOpacity2=0.1;" parent="1" vertex="1">
          <mxGeometry x="150" y="630" width="120" height="130" as="geometry" />
        </mxCell>
        <mxCell id="kcXfaE-dkaj5RGywXrMK-17" value="Postgre SQL" style="text;html=1;strokeColor=none;fillColor=none;align=center;verticalAlign=middle;whiteSpace=wrap;rounded=0;" parent="1" vertex="1">
          <mxGeometry x="190" y="685" width="60" height="30" as="geometry" />
        </mxCell>
        <mxCell id="kcXfaE-dkaj5RGywXrMK-19" value="" style="endArrow=none;html=1;rounded=0;entryX=0.083;entryY=0.275;entryDx=0;entryDy=0;entryPerimeter=0;" parent="1" edge="1">
          <mxGeometry width="50" height="50" relative="1" as="geometry">
            <mxPoint x="270" y="242" as="sourcePoint" />
            <mxPoint x="579.96" y="242" as="targetPoint" />
          </mxGeometry>
        </mxCell>
        <mxCell id="_cEfNtjWs9ws8Yt1ESfz-1" value="Text" style="edgeLabel;html=1;align=center;verticalAlign=middle;resizable=0;points=[];" vertex="1" connectable="0" parent="kcXfaE-dkaj5RGywXrMK-19">
          <mxGeometry x="0.2453" y="1" relative="1" as="geometry">
            <mxPoint x="-613" y="-26" as="offset" />
          </mxGeometry>
        </mxCell>
        <mxCell id="kcXfaE-dkaj5RGywXrMK-21" value="HTTPS" style="text;html=1;strokeColor=none;fillColor=none;align=center;verticalAlign=middle;whiteSpace=wrap;rounded=0;" parent="1" vertex="1">
          <mxGeometry x="350" y="200" width="60" height="30" as="geometry" />
        </mxCell>
        <mxCell id="kcXfaE-dkaj5RGywXrMK-22" value="PG Promise" style="text;html=1;strokeColor=none;fillColor=none;align=center;verticalAlign=middle;whiteSpace=wrap;rounded=0;" parent="1" vertex="1">
          <mxGeometry x="380" y="430" width="60" height="30" as="geometry" />
        </mxCell>
        <mxCell id="kcXfaE-dkaj5RGywXrMK-23" value="Azure" style="text;html=1;strokeColor=none;fillColor=none;align=center;verticalAlign=middle;whiteSpace=wrap;rounded=0;" parent="1" vertex="1">
          <mxGeometry x="610" y="160" width="60" height="30" as="geometry" />
        </mxCell>
        <mxCell id="kcXfaE-dkaj5RGywXrMK-24" value="Database" style="text;html=1;strokeColor=none;fillColor=none;align=center;verticalAlign=middle;whiteSpace=wrap;rounded=0;" parent="1" vertex="1">
          <mxGeometry x="170" y="595" width="60" height="30" as="geometry" />
        </mxCell>
        <mxCell id="kcXfaE-dkaj5RGywXrMK-25" value="" style="shape=cube;whiteSpace=wrap;html=1;boundedLbl=1;backgroundOutline=1;darkOpacity=0.05;darkOpacity2=0.1;" parent="1" vertex="1">
          <mxGeometry x="510" y="500" width="240" height="260" as="geometry" />
        </mxCell>
        <mxCell id="kcXfaE-dkaj5RGywXrMK-26" value="&amp;lt;&amp;lt; Server&amp;gt;&amp;gt;" style="text;html=1;strokeColor=none;fillColor=none;align=center;verticalAlign=middle;whiteSpace=wrap;rounded=0;" parent="1" vertex="1">
          <mxGeometry x="590" y="535" width="80" height="30" as="geometry" />
        </mxCell>
        <mxCell id="kcXfaE-dkaj5RGywXrMK-27" value="Github" style="text;html=1;strokeColor=none;fillColor=none;align=center;verticalAlign=middle;whiteSpace=wrap;rounded=0;" parent="1" vertex="1">
          <mxGeometry x="600" y="570" width="60" height="30" as="geometry" />
        </mxCell>
        <mxCell id="kcXfaE-dkaj5RGywXrMK-28" value="" style="rounded=1;whiteSpace=wrap;html=1;" parent="1" vertex="1">
          <mxGeometry x="570" y="625" width="120" height="60" as="geometry" />
        </mxCell>
        <mxCell id="kcXfaE-dkaj5RGywXrMK-29" value="Service Repo" style="text;html=1;strokeColor=none;fillColor=none;align=center;verticalAlign=middle;whiteSpace=wrap;rounded=0;" parent="1" vertex="1">
          <mxGeometry x="600" y="640" width="60" height="30" as="geometry" />
        </mxCell>
        <mxCell id="kcXfaE-dkaj5RGywXrMK-30" value="" style="endArrow=none;html=1;rounded=0;entryX=0.491;entryY=0.993;entryDx=0;entryDy=0;entryPerimeter=0;" parent="1" source="kcXfaE-dkaj5RGywXrMK-28" target="kcXfaE-dkaj5RGywXrMK-3" edge="1">
          <mxGeometry width="50" height="50" relative="1" as="geometry">
            <mxPoint x="340" y="550" as="sourcePoint" />
            <mxPoint x="390" y="500" as="targetPoint" />
          </mxGeometry>
        </mxCell>
        <mxCell id="kcXfaE-dkaj5RGywXrMK-31" value="" style="rounded=1;whiteSpace=wrap;html=1;" parent="1" vertex="1">
          <mxGeometry x="530" y="210" width="90" height="50" as="geometry" />
        </mxCell>
        <mxCell id="kcXfaE-dkaj5RGywXrMK-32" value="Web app" style="text;html=1;strokeColor=none;fillColor=none;align=center;verticalAlign=middle;whiteSpace=wrap;rounded=0;" parent="1" vertex="1">
          <mxGeometry x="540" y="220" width="60" height="30" as="geometry" />
        </mxCell>
        <mxCell id="kcXfaE-dkaj5RGywXrMK-36" value="" style="shape=cube;whiteSpace=wrap;html=1;boundedLbl=1;backgroundOutline=1;darkOpacity=0.05;darkOpacity2=0.1;" parent="1" vertex="1">
          <mxGeometry x="660" y="190" width="130" height="110" as="geometry" />
        </mxCell>
        <mxCell id="kcXfaE-dkaj5RGywXrMK-37" value="&amp;lt;&amp;lt; App server&amp;gt;&amp;gt;" style="text;html=1;strokeColor=none;fillColor=none;align=center;verticalAlign=middle;whiteSpace=wrap;rounded=0;" parent="1" vertex="1">
          <mxGeometry x="680" y="220" width="80" height="30" as="geometry" />
        </mxCell>
        <mxCell id="kcXfaE-dkaj5RGywXrMK-38" value="" style="rounded=1;whiteSpace=wrap;html=1;" parent="1" vertex="1">
          <mxGeometry x="690" y="250" width="60" height="40" as="geometry" />
        </mxCell>
        <mxCell id="kcXfaE-dkaj5RGywXrMK-39" value="server.js" style="text;html=1;strokeColor=none;fillColor=none;align=center;verticalAlign=middle;whiteSpace=wrap;rounded=0;" parent="1" vertex="1">
          <mxGeometry x="690" y="260" width="60" height="20" as="geometry" />
        </mxCell>
        <mxCell id="kcXfaE-dkaj5RGywXrMK-42" style="edgeStyle=orthogonalEdgeStyle;rounded=0;orthogonalLoop=1;jettySize=auto;html=1;exitX=0.5;exitY=1;exitDx=0;exitDy=0;" parent="1" source="kcXfaE-dkaj5RGywXrMK-41" target="kcXfaE-dkaj5RGywXrMK-17" edge="1">
          <mxGeometry relative="1" as="geometry">
            <Array as="points">
              <mxPoint x="210" y="700" />
              <mxPoint x="210" y="700" />
            </Array>
          </mxGeometry>
        </mxCell>
        <mxCell id="kcXfaE-dkaj5RGywXrMK-41" value="&amp;lt;&amp;lt;DBMS&amp;gt;&amp;gt;" style="text;html=1;strokeColor=none;fillColor=none;align=center;verticalAlign=middle;whiteSpace=wrap;rounded=0;" parent="1" vertex="1">
          <mxGeometry x="190" y="655" width="60" height="30" as="geometry" />
        </mxCell>
        <mxCell id="kcXfaE-dkaj5RGywXrMK-43" value="" style="rounded=0;whiteSpace=wrap;html=1;" parent="1" vertex="1">
          <mxGeometry x="195" y="715" width="50" height="40" as="geometry" />
        </mxCell>
        <mxCell id="kcXfaE-dkaj5RGywXrMK-44" value="db" style="text;html=1;strokeColor=none;fillColor=none;align=center;verticalAlign=middle;whiteSpace=wrap;rounded=0;" parent="1" vertex="1">
          <mxGeometry x="190" y="720" width="60" height="30" as="geometry" />
        </mxCell>
        <mxCell id="kcXfaE-dkaj5RGywXrMK-46" value="" style="endArrow=none;html=1;rounded=0;entryX=0.017;entryY=0.536;entryDx=0;entryDy=0;entryPerimeter=0;exitX=1;exitY=0.75;exitDx=0;exitDy=0;" parent="1" source="kcXfaE-dkaj5RGywXrMK-31" target="kcXfaE-dkaj5RGywXrMK-36" edge="1">
          <mxGeometry width="50" height="50" relative="1" as="geometry">
            <mxPoint x="400" y="370" as="sourcePoint" />
            <mxPoint x="450" y="320" as="targetPoint" />
          </mxGeometry>
        </mxCell>
        <mxCell id="kcXfaE-dkaj5RGywXrMK-53" value="" style="endArrow=none;html=1;rounded=0;entryX=0.5;entryY=1;entryDx=0;entryDy=0;" parent="1" target="kcXfaE-dkaj5RGywXrMK-38" edge="1">
          <mxGeometry width="50" height="50" relative="1" as="geometry">
            <mxPoint x="260" y="710" as="sourcePoint" />
            <mxPoint x="450" y="470" as="targetPoint" />
          </mxGeometry>
        </mxCell>
        <mxCell id="_cEfNtjWs9ws8Yt1ESfz-2" value="" style="shape=cube;whiteSpace=wrap;html=1;boundedLbl=1;backgroundOutline=1;darkOpacity=0.05;darkOpacity2=0.1;" vertex="1" parent="1">
          <mxGeometry x="-305" y="395" width="230" height="260" as="geometry" />
        </mxCell>
        <mxCell id="_cEfNtjWs9ws8Yt1ESfz-5" value="&amp;lt;&amp;lt;Server&amp;gt;&amp;gt;" style="text;html=1;strokeColor=none;fillColor=none;align=center;verticalAlign=middle;whiteSpace=wrap;rounded=0;" vertex="1" parent="1">
          <mxGeometry x="-220" y="440" width="60" height="30" as="geometry" />
        </mxCell>
        <mxCell id="_cEfNtjWs9ws8Yt1ESfz-6" value="Spotify" style="text;html=1;strokeColor=none;fillColor=none;align=center;verticalAlign=middle;whiteSpace=wrap;rounded=0;" vertex="1" parent="1">
          <mxGeometry x="-220" y="470" width="60" height="30" as="geometry" />
        </mxCell>
        <mxCell id="_cEfNtjWs9ws8Yt1ESfz-8" value="Spotify API" style="shape=cube;whiteSpace=wrap;html=1;boundedLbl=1;backgroundOutline=1;darkOpacity=0.05;darkOpacity2=0.1;" vertex="1" parent="1">
          <mxGeometry x="-240" y="530" width="120" height="80" as="geometry" />
        </mxCell>
        <mxCell id="_cEfNtjWs9ws8Yt1ESfz-9" value="HTTPS" style="text;html=1;strokeColor=none;fillColor=none;align=center;verticalAlign=middle;whiteSpace=wrap;rounded=0;" vertex="1" parent="1">
          <mxGeometry x="-30" y="210" width="60" height="30" as="geometry" />
        </mxCell>
        <mxCell id="_cEfNtjWs9ws8Yt1ESfz-10" value="" style="shape=cube;whiteSpace=wrap;html=1;boundedLbl=1;backgroundOutline=1;darkOpacity=0.05;darkOpacity2=0.1;" vertex="1" parent="1">
          <mxGeometry x="-305" y="80" width="240" height="250" as="geometry" />
        </mxCell>
        <mxCell id="_cEfNtjWs9ws8Yt1ESfz-13" value="" style="endArrow=none;html=1;rounded=0;exitX=1;exitY=0.568;exitDx=0;exitDy=0;exitPerimeter=0;" edge="1" parent="1" source="_cEfNtjWs9ws8Yt1ESfz-10" target="kcXfaE-dkaj5RGywXrMK-10">
          <mxGeometry width="50" height="50" relative="1" as="geometry">
            <mxPoint x="-20" y="220" as="sourcePoint" />
            <mxPoint x="289.96000000000004" y="220" as="targetPoint" />
          </mxGeometry>
        </mxCell>
        <mxCell id="_cEfNtjWs9ws8Yt1ESfz-16" value="&amp;lt;&amp;lt;Server&amp;gt;&amp;gt;" style="text;html=1;strokeColor=none;fillColor=none;align=center;verticalAlign=middle;whiteSpace=wrap;rounded=0;" vertex="1" parent="1">
          <mxGeometry x="-220" y="140" width="60" height="30" as="geometry" />
        </mxCell>
        <mxCell id="_cEfNtjWs9ws8Yt1ESfz-17" value="Hugging Face" style="text;html=1;strokeColor=none;fillColor=none;align=center;verticalAlign=middle;whiteSpace=wrap;rounded=0;" vertex="1" parent="1">
          <mxGeometry x="-215" y="180" width="60" height="30" as="geometry" />
        </mxCell>
        <mxCell id="_cEfNtjWs9ws8Yt1ESfz-18" value="" style="shape=cube;whiteSpace=wrap;html=1;boundedLbl=1;backgroundOutline=1;darkOpacity=0.05;darkOpacity2=0.1;" vertex="1" parent="1">
          <mxGeometry x="-245" y="240" width="120" height="80" as="geometry" />
        </mxCell>
        <mxCell id="_cEfNtjWs9ws8Yt1ESfz-19" value="Hugging Face API" style="text;html=1;strokeColor=none;fillColor=none;align=center;verticalAlign=middle;whiteSpace=wrap;rounded=0;" vertex="1" parent="1">
          <mxGeometry x="-210" y="270" width="60" height="30" as="geometry" />
        </mxCell>
        <mxCell id="_cEfNtjWs9ws8Yt1ESfz-20" value="" style="shape=cube;whiteSpace=wrap;html=1;boundedLbl=1;backgroundOutline=1;darkOpacity=0.05;darkOpacity2=0.1;" vertex="1" parent="1">
          <mxGeometry x="-610" y="170" width="240" height="240" as="geometry" />
        </mxCell>
        <mxCell id="_cEfNtjWs9ws8Yt1ESfz-21" value="&amp;lt;&amp;lt; Server&amp;gt;&amp;gt;" style="text;html=1;strokeColor=none;fillColor=none;align=center;verticalAlign=middle;whiteSpace=wrap;rounded=0;" vertex="1" parent="1">
          <mxGeometry x="-520" y="210" width="70" height="30" as="geometry" />
        </mxCell>
        <mxCell id="_cEfNtjWs9ws8Yt1ESfz-22" value="Text" style="text;html=1;strokeColor=none;fillColor=none;align=center;verticalAlign=middle;whiteSpace=wrap;rounded=0;" vertex="1" parent="1">
          <mxGeometry x="-220" y="290" width="60" height="30" as="geometry" />
        </mxCell>
        <mxCell id="_cEfNtjWs9ws8Yt1ESfz-23" value="LLM Server" style="text;html=1;strokeColor=none;fillColor=none;align=center;verticalAlign=middle;whiteSpace=wrap;rounded=0;" vertex="1" parent="1">
          <mxGeometry x="-525" y="245" width="95" height="30" as="geometry" />
        </mxCell>
        <mxCell id="_cEfNtjWs9ws8Yt1ESfz-24" value="" style="shape=cube;whiteSpace=wrap;html=1;boundedLbl=1;backgroundOutline=1;darkOpacity=0.05;darkOpacity2=0.1;" vertex="1" parent="1">
          <mxGeometry x="-530" y="300" width="120" height="80" as="geometry" />
        </mxCell>
        <mxCell id="_cEfNtjWs9ws8Yt1ESfz-25" value="Server Code" style="text;html=1;strokeColor=none;fillColor=none;align=center;verticalAlign=middle;whiteSpace=wrap;rounded=0;" vertex="1" parent="1">
          <mxGeometry x="-490" y="330" width="60" height="30" as="geometry" />
        </mxCell>
        <mxCell id="_cEfNtjWs9ws8Yt1ESfz-26" value="" style="endArrow=none;html=1;rounded=0;entryX=0;entryY=0;entryDx=10;entryDy=70;entryPerimeter=0;exitX=0;exitY=0;exitDx=120;exitDy=50;exitPerimeter=0;" edge="1" parent="1" source="_cEfNtjWs9ws8Yt1ESfz-24" target="_cEfNtjWs9ws8Yt1ESfz-18">
          <mxGeometry width="50" height="50" relative="1" as="geometry">
            <mxPoint x="-330" y="344.5" as="sourcePoint" />
            <mxPoint x="-10.039999999999964" y="344.5" as="targetPoint" />
          </mxGeometry>
        </mxCell>
        <mxCell id="_cEfNtjWs9ws8Yt1ESfz-27" value="HTTPS" style="edgeLabel;html=1;align=center;verticalAlign=middle;resizable=0;points=[];" vertex="1" connectable="0" parent="_cEfNtjWs9ws8Yt1ESfz-26">
          <mxGeometry x="0.2453" y="1" relative="1" as="geometry">
            <mxPoint x="-39" y="-4" as="offset" />
          </mxGeometry>
        </mxCell>
        <mxCell id="_cEfNtjWs9ws8Yt1ESfz-28" value="" style="endArrow=none;html=1;rounded=0;exitX=1;exitY=1;exitDx=0;exitDy=0;exitPerimeter=0;entryX=0.579;entryY=1.017;entryDx=0;entryDy=0;entryPerimeter=0;" edge="1" parent="1" source="_cEfNtjWs9ws8Yt1ESfz-8" target="kcXfaE-dkaj5RGywXrMK-10">
          <mxGeometry width="50" height="50" relative="1" as="geometry">
            <mxPoint x="20" y="420" as="sourcePoint" />
            <mxPoint x="330" y="420" as="targetPoint" />
          </mxGeometry>
        </mxCell>
        <mxCell id="_cEfNtjWs9ws8Yt1ESfz-29" value="HTTPS" style="edgeLabel;html=1;align=center;verticalAlign=middle;resizable=0;points=[];" vertex="1" connectable="0" parent="_cEfNtjWs9ws8Yt1ESfz-28">
          <mxGeometry x="0.2453" y="1" relative="1" as="geometry">
            <mxPoint x="-71" y="43" as="offset" />
          </mxGeometry>
        </mxCell>
      </root>
    </mxGraphModel>
  </diagram>
</mxfile>
